<svg width="1248" height="203" viewBox="0 0 1248 203" fill="none" xmlns="http://www.w3.org/2000/svg">
<path d="M87.4634 159.374H121.817L80.5533 23.1888H41.2638L0 159.374H33.5639L40.4741 130.093H80.5533L87.4634 159.374ZM46.0022 106.708L60.4149 46.5741L74.8277 106.708H46.0022Z" fill="white"/>
<path d="M193.06 10.2188V61.5092C186.94 55.4172 178.45 51.6834 168.183 51.6834C142.319 51.6834 125.34 74.6757 125.34 106.904C125.34 140.705 138.568 162.714 165.222 162.714C179.437 162.714 188.914 155.836 195.034 147.19L196.614 159.374H224.255V13.5595L193.06 10.2188ZM174.896 139.919C164.827 139.919 157.719 133.041 157.719 107.101C157.719 83.7154 165.617 74.2827 176.673 74.2827C183.583 74.2827 188.322 77.6234 193.06 83.1258V128.128C188.124 135.988 182.399 139.919 174.896 139.919Z" fill="white"/>
<path d="M310.287 10.2188V61.5092C304.166 55.4172 295.677 51.6834 285.41 51.6834C259.546 51.6834 242.567 74.6757 242.567 106.904C242.567 140.705 255.795 162.714 282.448 162.714C296.664 162.714 306.141 155.836 312.261 147.19L313.841 159.374H341.481V13.5595L310.287 10.2188ZM292.123 139.919C282.054 139.919 274.946 133.041 274.946 107.101C274.946 83.7154 282.843 74.2827 293.9 74.2827C300.81 74.2827 305.548 77.6234 310.287 83.1258V128.128C305.351 135.988 299.625 139.919 292.123 139.919Z" fill="white"/>
<path d="M457.129 105.136C457.129 71.3349 438.767 51.6834 408.757 51.6834C376.97 51.6834 359.793 76.4443 359.793 107.69C359.793 140.312 377.562 162.714 412.508 162.714C429.488 162.714 442.913 156.426 453.377 148.172L440.544 130.879C431.462 137.167 423.96 140.115 415.47 140.115C402.637 140.115 393.752 135.006 391.778 116.337H456.536C456.931 113.193 457.129 108.476 457.129 105.136ZM426.526 97.668H391.58C393.16 78.8025 399.083 72.3175 409.547 72.3175C421.985 72.3175 426.329 82.1433 426.526 96.2924V97.668Z" fill="white"/>
<path d="M536.835 10.2188V61.5092C530.715 55.4172 522.225 51.6834 511.958 51.6834C486.094 51.6834 469.115 74.6757 469.115 106.904C469.115 140.705 482.343 162.714 508.997 162.714C523.212 162.714 532.689 155.836 538.809 147.19L540.389 159.374H568.03V13.5595L536.835 10.2188ZM518.671 139.919C508.602 139.919 501.494 133.041 501.494 107.101C501.494 83.7154 509.392 74.2827 520.448 74.2827C527.358 74.2827 532.097 77.6234 536.835 83.1258V128.128C531.899 135.988 526.174 139.919 518.671 139.919Z" fill="white"/>
<path d="M672.088 23.1888H639.709V159.374H672.088V23.1888Z" fill="white"/>
<path d="M758.164 51.6834C744.936 51.6834 734.866 57.1859 726.179 67.6012L723.81 55.0242H696.762V159.374H727.956V88.0387C733.287 79.3921 739.21 74.4792 746.12 74.4792C752.241 74.4792 755.992 77.4269 755.992 88.4317V159.374H787.187V83.1258C787.187 63.2778 776.328 51.6834 758.164 51.6834Z" fill="white"/>
<path d="M847.057 51.6834C820.601 51.6834 804.214 65.636 804.214 83.5189C804.214 99.6331 814.48 110.245 835.211 116.14C854.165 121.446 857.324 123.608 857.324 130.682C857.324 136.971 851.598 140.508 842.121 140.508C831.854 140.508 822.18 136.381 814.283 130.289L799.08 147.19C809.347 156.426 824.747 162.714 842.911 162.714C868.972 162.714 889.505 149.941 889.505 128.324C889.505 109.655 877.857 101.009 857.126 95.1133C838.37 89.6108 835.606 87.2527 835.606 81.7502C835.606 77.0339 839.752 73.8896 848.242 73.8896C857.324 73.8896 866.011 76.8374 874.105 81.9468L885.557 64.4569C875.882 56.5963 862.259 51.6834 847.057 51.6834Z" fill="white"/>
<path d="M920.2 0C909.539 0 901.839 7.66409 901.839 17.6864C901.839 27.7086 909.539 35.3727 920.2 35.3727C931.257 35.3727 938.759 27.7086 938.759 17.6864C938.759 7.66409 931.257 0 920.2 0ZM935.995 55.0242H904.8V159.374H935.995V55.0242Z" fill="white"/>
<path d="M1049.57 38.1239C1036.94 45.5915 1023.51 52.273 1000.22 51.6834C972.772 51.6834 954.213 66.2256 954.213 89.8074C954.213 103.367 959.544 112.603 972.969 119.678C965.467 124.394 960.531 132.058 960.531 139.722C960.531 150.924 969.81 160.356 992.713 160.356H1007.92C1018.38 160.356 1022.92 164.483 1022.92 170.575C1022.92 177.257 1018.58 182.366 1000.22 182.366C981.261 182.366 977.313 178.436 977.313 169.396H949.277C949.277 190.03 959.741 203 999.425 203C1035.36 203 1054.31 189.833 1054.31 168.413C1054.31 150.924 1038.71 138.15 1014.23 138.15H998.438C988.369 138.15 986.987 135.006 986.987 131.862C986.987 129.503 988.172 127.145 990.343 125.966C994.095 126.752 998.043 127.145 1002.39 127.145C1029.63 127.145 1046.41 112.407 1046.41 92.1655C1046.41 78.606 1039.9 70.9419 1026.67 65.243C1039.9 65.243 1049.57 64.0639 1056.88 61.1162L1049.57 38.1239ZM1001 72.121C1011.47 72.121 1016.8 77.4269 1016.8 89.0213C1016.8 101.009 1011.27 107.101 1001 107.101C991.528 107.101 985.21 100.812 985.21 89.4143C985.21 78.606 991.331 72.121 1001 72.121Z" fill="white"/>
<path d="M1130.28 51.6834C1117.84 51.6834 1108.56 56.5963 1100.07 66.2256V10.4153L1068.88 13.5595V159.374H1100.07V87.8422C1105.4 79.3921 1111.33 74.4792 1118.24 74.4792C1124.16 74.4792 1128.11 77.4269 1128.11 88.4317V159.374H1159.3V83.1258C1159.3 63.2778 1148.25 51.6834 1130.28 51.6834Z" fill="white"/>
<path d="M1237.54 134.809C1233.39 137.167 1229.84 138.15 1226.28 138.15C1219.77 138.15 1216.41 134.613 1216.41 124.591V76.6409H1237.14L1240.5 55.0242H1216.41V28.8877L1185.22 32.425V55.0242H1170.41V76.6409H1185.22V124.984C1185.22 149.548 1196.47 162.518 1219.57 162.714C1229.05 162.714 1240.1 159.963 1248 154.461L1237.54 134.809Z" fill="white"/>
</svg>
